<?xml version="1.0" encoding="utf-8"?>
<svg xmlns="http://www.w3.org/2000/svg" viewBox="578.5228 223.3209 162.9761 162.978" width="162.976px" height="162.978px" preserveAspectRatio="none"><g transform="matrix(1, 0, 0, 1, 0, -5.684341886080802e-14)" id="object-0"><g><path style="opacity: 0.1; fill-rule: evenodd; clip-rule: evenodd; fill: rgb(148, 41, 162);" d="M658.413,369.129l0-2.487 c-4.34-0.11-8.66-0.681-12.88-1.7l-0.644,2.402c2.221,0.54,4.471,0.961,6.738,1.259 C653.877,368.899,656.143,369.075,658.413,369.129L658.413,369.129z"/><path style="opacity: 0.2; fill-rule: evenodd; clip-rule: evenodd; fill: rgb(148, 41, 162);" d="M641.823,366.527l0.644-2.403 c-4.164-1.229-8.189-2.899-12.001-4.976l-1.243,2.154c2.006,1.096,4.07,2.085,6.182,2.959 C637.501,365.131,639.645,365.887,641.823,366.527L641.823,366.527z"/><path style="opacity: 0.3; fill-rule: evenodd; clip-rule: evenodd; fill: rgb(148, 41, 162);" d="M626.472,359.72l1.243-2.154 c-3.703-2.265-7.159-4.92-10.304-7.913l-1.758,1.759c1.654,1.578,3.392,3.067,5.205,4.459 C622.659,357.253,624.534,358.538,626.472,359.72L626.472,359.72z"/><path style="opacity: 0.4; fill-rule: evenodd; clip-rule: evenodd; fill: rgb(148, 41, 162);" d="M613.402,349.174l1.759-1.759 c-2.991-3.146-5.642-6.605-7.906-10.31l-2.154,1.243c1.189,1.952,2.482,3.841,3.874,5.655 C610.358,345.803,611.836,347.531,613.402,349.174L613.402,349.174z"/><path style="opacity: 0.5; fill-rule: evenodd; clip-rule: evenodd; fill: rgb(148, 41, 162);" d="M603.511,335.603l2.154-1.244 c-2.075-3.814-3.741-7.841-4.968-12.005l-2.402,0.644c0.643,2.194,1.404,4.352,2.279,6.464 C601.442,331.559,602.423,333.61,603.511,335.603L603.511,335.603z"/><path style="opacity: 0.6; fill-rule: evenodd; clip-rule: evenodd; fill: rgb(148, 41, 162);" d="M597.469,319.934l2.402-0.644 c-1.017-4.221-1.584-8.541-1.691-12.881h-2.487c0.054,2.286,0.23,4.568,0.528,6.834 C596.517,315.493,596.934,317.728,597.469,319.934L597.469,319.934z"/><path style="opacity: 0.7; fill-rule: evenodd; clip-rule: evenodd; fill: rgb(148, 41, 162);" d="M595.688,303.235l2.487,0 c0.11-4.34,0.681-8.66,1.7-12.88l-2.402-0.644c-0.54,2.221-0.96,4.471-1.259,6.738 C595.918,298.699,595.742,300.966,595.688,303.235L595.688,303.235z"/><path style="opacity: 0.8; fill-rule: evenodd; clip-rule: evenodd; fill: rgb(148, 41, 162);" d="M598.29,286.643l2.402,0.644 c1.23-4.164,2.899-8.189,4.976-12.001l-2.154-1.244c-1.096,2.006-2.085,4.07-2.96,6.182 C599.686,282.322,598.93,284.466,598.29,286.643L598.29,286.643z"/><path style="opacity: 0.9; fill-rule: evenodd; clip-rule: evenodd; fill: rgb(148, 41, 162);" d="M605.097,271.292l2.154,1.243 c2.265-3.703,4.92-7.159,7.913-10.304l-1.759-1.758c-1.578,1.654-3.068,3.392-4.459,5.205 C607.565,267.479,606.279,269.354,605.097,271.292L605.097,271.292z"/><path style="fill-rule: evenodd; clip-rule: evenodd; fill: rgb(148, 41, 162);" d="M615.647,258.225l1.759,1.759 c3.147-2.991,6.605-5.642,10.31-7.905l-1.244-2.154c-1.952,1.189-3.841,2.483-5.654,3.874 C619.016,255.181,617.29,256.659,615.647,258.225L615.647,258.225z"/><path style="fill-rule: evenodd; clip-rule: evenodd; fill: rgb(148, 41, 162);" d="M629.218,248.333l1.244,2.154 c3.813-2.075,7.841-3.74,12.005-4.968l-0.644-2.402c-2.194,0.643-4.352,1.404-6.464,2.279 C633.261,246.264,631.211,247.245,629.218,248.333L629.218,248.333z"/><path style="fill-rule: evenodd; clip-rule: evenodd; fill: rgb(148, 41, 162);" d="M644.888,242.292l0.644,2.402 c4.22-1.017,8.541-1.584,12.881-1.691l0-2.487c-2.285,0.054-4.567,0.23-6.834,0.528 C649.328,241.34,647.093,241.757,644.888,242.292L644.888,242.292z"/></g><g><path style="opacity: 0.1; fill-rule: evenodd; clip-rule: evenodd; fill: rgb(148, 41, 162);" d="M661.584,369.129v-2.487 c4.34-0.11,8.66-0.681,12.88-1.7l0.643,2.402c-2.221,0.54-4.471,0.961-6.738,1.259 C666.12,368.899,663.853,369.075,661.584,369.129L661.584,369.129z"/><path style="opacity: 0.2; fill-rule: evenodd; clip-rule: evenodd; fill: rgb(148, 41, 162);" d="M678.174,366.527l-0.643-2.403 c4.163-1.229,8.189-2.899,12.001-4.976l1.243,2.154c-2.006,1.096-4.07,2.085-6.182,2.959 C682.495,365.131,680.352,365.887,678.174,366.527L678.174,366.527z"/><path style="opacity: 0.3; fill-rule: evenodd; clip-rule: evenodd; fill: rgb(148, 41, 162);" d="M693.525,359.72l-1.244-2.154 c3.704-2.265,7.16-4.92,10.304-7.913l1.759,1.759c-1.654,1.578-3.392,3.067-5.206,4.459 C697.338,357.253,695.463,358.538,693.525,359.72L693.525,359.72z"/><path style="opacity: 0.4; fill-rule: evenodd; clip-rule: evenodd; fill: rgb(148, 41, 162);" d="M706.595,349.174l-1.759-1.759 c2.991-3.146,5.642-6.605,7.906-10.31l2.154,1.243c-1.189,1.952-2.482,3.841-3.874,5.655 C709.639,345.803,708.161,347.531,706.595,349.174L706.595,349.174z"/><path style="opacity: 0.5; fill-rule: evenodd; clip-rule: evenodd; fill: rgb(148, 41, 162);" d="M716.486,335.603l-2.154-1.244 c2.075-3.814,3.74-7.841,4.968-12.005l2.402,0.644c-0.643,2.194-1.404,4.352-2.278,6.464 C718.555,331.559,717.574,333.61,716.486,335.603L716.486,335.603z"/><path style="opacity: 0.6; fill-rule: evenodd; clip-rule: evenodd; fill: rgb(148, 41, 162);" d="M722.528,319.934l-2.403-0.644 c1.017-4.221,1.584-8.541,1.692-12.881h2.487c-0.054,2.286-0.23,4.568-0.528,6.834 C723.479,315.493,723.063,317.728,722.528,319.934L722.528,319.934z"/><path style="opacity: 0.7; fill-rule: evenodd; clip-rule: evenodd; fill: rgb(148, 41, 162);" d="M724.309,303.235l-2.487,0 c-0.11-4.34-0.681-8.66-1.7-12.88l2.402-0.644c0.539,2.221,0.96,4.471,1.259,6.738 C724.078,298.699,724.254,300.966,724.309,303.235L724.309,303.235z"/><path style="opacity: 0.8; fill-rule: evenodd; clip-rule: evenodd; fill: rgb(148, 41, 162);" d="M721.707,286.643l-2.403,0.644 c-1.23-4.164-2.899-8.189-4.976-12.001l2.154-1.244c1.096,2.006,2.085,4.07,2.96,6.182 C720.31,282.322,721.067,284.466,721.707,286.643L721.707,286.643z"/><path style="opacity: 0.9; fill-rule: evenodd; clip-rule: evenodd; fill: rgb(148, 41, 162);" d="M714.899,271.292l-2.154,1.243 c-2.265-3.703-4.92-7.159-7.912-10.304l1.759-1.758c1.578,1.654,3.067,3.392,4.459,5.205 C712.432,267.479,713.717,269.354,714.899,271.292L714.899,271.292z"/><path style="fill-rule: evenodd; clip-rule: evenodd; fill: rgb(148, 41, 162);" d="M704.35,258.225l-1.759,1.759 c-3.146-2.991-6.605-5.642-10.31-7.905l1.244-2.154c1.952,1.189,3.841,2.483,5.654,3.874 C700.98,255.181,702.707,256.659,704.35,258.225L704.35,258.225z"/><path style="fill-rule: evenodd; clip-rule: evenodd; fill: rgb(148, 41, 162);" d="M690.779,248.333l-1.244,2.154 c-3.814-2.075-7.841-3.74-12.005-4.968l0.644-2.402c2.194,0.643,4.352,1.404,6.464,2.279 C686.735,246.264,688.786,247.245,690.779,248.333L690.779,248.333z"/><path style="fill-rule: evenodd; clip-rule: evenodd; fill: rgb(148, 41, 162);" d="M675.109,242.292l-0.644,2.402 c-4.221-1.017-8.542-1.584-12.881-1.691v-2.487c2.285,0.054,4.568,0.23,6.834,0.528 C670.669,241.34,672.903,241.757,675.109,242.292L675.109,242.292z"/></g><path style="fill-rule: evenodd; clip-rule: evenodd; fill: rgb(148, 41, 162);" d=" M631.702,230.925l-3.001-1.917c-4.787,1.976-9.382,4.405-13.712,7.247c-4.677,3.07-9.031,6.617-12.987,10.572 c-3.955,3.956-7.502,8.311-10.573,12.987c-2.842,4.33-5.271,8.925-7.248,13.712l1.917,3.001c1.67-4.37,3.728-8.588,6.149-12.594 c3.31-5.478,7.279-10.53,11.804-15.056c4.526-4.525,9.578-8.493,15.056-11.804C623.115,234.653,627.332,232.595,631.702,230.925 L631.702,230.925z"/><path style="fill-rule: evenodd; clip-rule: evenodd; fill: rgb(148, 41, 162);" d=" M733.898,276.527l1.917-3.001c-1.977-4.787-4.406-9.383-7.248-13.712c-3.07-4.676-6.617-9.031-10.573-12.987 c-3.955-3.956-8.31-7.503-12.987-10.573c-4.33-2.843-8.925-5.271-13.712-7.248l-3.001,1.917c4.371,1.671,8.588,3.729,12.594,6.15 c5.478,3.31,10.53,7.278,15.056,11.804c4.525,4.525,8.493,9.578,11.804,15.055C730.169,267.94,732.227,272.158,733.898,276.527 L733.898,276.527z"/><path style="fill-rule: evenodd; clip-rule: evenodd; fill: rgb(148, 41, 162);" d=" M688.295,378.723l3.001,1.917c4.787-1.976,9.382-4.405,13.712-7.248c4.677-3.07,9.031-6.617,12.987-10.572 c3.955-3.956,7.503-8.311,10.573-12.987c2.842-4.329,5.271-8.925,7.248-13.712l-1.917-3.001c-1.67,4.37-3.728,8.588-6.15,12.594 c-3.31,5.478-7.278,10.53-11.804,15.055c-4.525,4.526-9.578,8.494-15.056,11.804 C696.883,374.994,692.665,377.052,688.295,378.723L688.295,378.723z"/><path style="fill-rule: evenodd; clip-rule: evenodd; fill: rgb(148, 41, 162);" d=" M586.1,333.12l-1.917,3.001c1.977,4.787,4.405,9.383,7.248,13.712c3.07,4.676,6.617,9.031,10.573,12.987 c3.955,3.956,8.31,7.503,12.986,10.573c4.33,2.842,8.925,5.271,13.713,7.247l3.001-1.917c-4.371-1.671-8.588-3.729-12.595-6.15 c-5.477-3.31-10.53-7.278-15.056-11.803c-4.526-4.526-8.493-9.578-11.804-15.056C589.828,341.708,587.77,337.49,586.1,333.12 L586.1,333.12z"/><path style="fill: rgb(148, 41, 162);" d="M605.956,249.371l0.006-0.005 c0.232-0.226,0.465-0.45,0.698-0.673l0.033-0.031c0.225-0.214,0.451-0.426,0.679-0.637l0.068-0.063 c0.213-0.197,0.427-0.393,0.642-0.587l0.118-0.106c0.2-0.18,0.401-0.36,0.603-0.538l0.135-0.118 c0.183-0.161,0.366-0.32,0.55-0.479l0.28-0.241c0.145-0.124,0.291-0.248,0.438-0.371c0.118-0.1,0.237-0.199,0.356-0.297 c0.123-0.102,0.246-0.204,0.369-0.305c0.155-0.127,0.311-0.254,0.467-0.38l0.028-0.022l0.229-0.184 c7.281-5.834,15.372-10.162,23.854-12.982l-6.632-4.237c-5.187,2.078-10.149,4.668-14.812,7.729 c-4.749,3.118-9.193,6.729-13.254,10.79c-4.061,4.061-7.672,8.505-10.79,13.254c-3.061,4.663-5.651,9.625-7.729,14.812 l4.237,6.632c2.82-8.482,7.148-16.573,12.982-23.855l0.184-0.229l0.021-0.026c0.127-0.157,0.255-0.314,0.383-0.47 c0.099-0.121,0.199-0.242,0.3-0.362c0.101-0.121,0.202-0.243,0.303-0.363c0.122-0.145,0.245-0.29,0.368-0.434l0.241-0.281 c0.158-0.184,0.318-0.368,0.478-0.55l0.119-0.135c0.178-0.201,0.357-0.402,0.537-0.602l0.108-0.119 c0.194-0.214,0.389-0.428,0.586-0.641l0.063-0.068c0.211-0.227,0.423-0.453,0.637-0.678l0.031-0.033 c0.222-0.234,0.447-0.467,0.672-0.699l0.006-0.006c0.232-0.237,0.466-0.474,0.701-0.71 C605.482,249.836,605.719,249.603,605.956,249.371L605.956,249.371z M689.686,383.382l-0.895,0.298 c-2.167,0.724-4.328,1.445-6.566,2.059c-0.595,0.164-1.184,0.191-1.75,0.086c-0.569-0.106-1.11-0.342-1.606-0.707 c-0.342-0.252-0.72-0.422-1.118-0.506c-0.398-0.084-0.822-0.083-1.257,0.007c-0.986,0.203-1.961,0.387-2.924,0.55 c-0.975,0.165-1.949,0.312-2.919,0.439c-1.74,0.229-3.501,0.401-5.281,0.517c-1.789,0.116-3.579,0.174-5.362,0.174 c-1.786,0-3.576-0.058-5.367-0.174c-1.779-0.116-3.539-0.288-5.278-0.517c-0.971-0.128-1.946-0.275-2.922-0.44 c-0.962-0.163-1.936-0.346-2.919-0.55c-0.436-0.089-0.859-0.09-1.257-0.006c-0.398,0.084-0.776,0.254-1.118,0.505 c-0.496,0.364-1.037,0.601-1.605,0.706c-0.566,0.105-1.156,0.077-1.749-0.086c-2.343-0.642-4.616-1.41-6.901-2.181l-0.557-0.188 l-1.294,0.827l-0.357-0.141c-5.413-2.139-10.586-4.825-15.439-8.011c-4.845-3.181-9.368-6.854-13.488-10.975 c-4.121-4.121-7.795-8.644-10.975-13.488c-3.186-4.853-5.872-10.026-8.011-15.439l-0.141-0.357l0.819-1.281l-0.305-0.914 c-0.724-2.166-1.445-4.328-2.059-6.566c-0.164-0.595-0.191-1.184-0.086-1.75c0.105-0.569,0.342-1.11,0.706-1.606 c0.252-0.342,0.422-0.72,0.506-1.118c0.084-0.398,0.083-0.822-0.007-1.257c-0.203-0.986-0.387-1.961-0.55-2.924 c-0.165-0.975-0.312-1.949-0.44-2.919c-0.229-1.74-0.401-3.501-0.517-5.281c-0.116-1.789-0.174-3.578-0.174-5.363 c0-1.786,0.058-3.576,0.174-5.366c0.116-1.779,0.288-3.539,0.517-5.277c0.128-0.972,0.275-1.946,0.44-2.922 c0.163-0.963,0.346-1.936,0.55-2.92c0.089-0.436,0.09-0.859,0.006-1.257c-0.084-0.398-0.254-0.776-0.505-1.118 c-0.364-0.496-0.601-1.037-0.706-1.606c-0.105-0.566-0.077-1.155,0.086-1.749c0.642-2.343,1.41-4.616,2.181-6.901l0.181-0.539 l-0.82-1.284l0.141-0.357c2.14-5.413,4.826-10.586,8.011-15.439c3.18-4.845,6.854-9.367,10.975-13.488 c4.121-4.121,8.644-7.795,13.488-10.975c4.853-3.186,10.026-5.872,15.439-8.011l0.357-0.141l0.318,0.203l0.934,0.597l0.943-0.315 c2.167-0.724,4.328-1.445,6.566-2.059c0.595-0.163,1.184-0.191,1.75-0.086c0.568,0.105,1.11,0.342,1.606,0.707 c0.342,0.252,0.72,0.422,1.118,0.506c0.398,0.084,0.822,0.083,1.257-0.007c0.986-0.203,1.96-0.387,2.924-0.549 c0.975-0.165,1.949-0.312,2.919-0.44c1.74-0.229,3.501-0.402,5.28-0.517c1.79-0.116,3.579-0.174,5.363-0.174 c1.786,0,3.576,0.058,5.366,0.174c1.779,0.116,3.539,0.288,5.278,0.517c0.972,0.128,1.946,0.275,2.922,0.44 c0.962,0.163,1.936,0.346,2.92,0.55c0.435,0.089,0.859,0.09,1.256,0.006c0.398-0.084,0.776-0.254,1.118-0.505 c0.496-0.364,1.037-0.601,1.606-0.706c0.566-0.105,1.155-0.076,1.749,0.086c2.344,0.642,4.616,1.41,6.9,2.181l0.568,0.191 l1.254-0.801l0.357,0.141c5.413,2.139,10.586,4.825,15.439,8.011c4.845,3.18,9.367,6.854,13.489,10.975 c4.121,4.121,7.794,8.644,10.975,13.488c3.186,4.853,5.871,10.026,8.011,15.439l0.141,0.357l-0.203,0.318l-0.591,0.924 l0.308,0.924c0.724,2.167,1.445,4.328,2.06,6.566c0.163,0.595,0.19,1.184,0.086,1.75c-0.105,0.569-0.342,1.11-0.707,1.606 c-0.252,0.342-0.422,0.72-0.506,1.118c-0.084,0.398-0.083,0.822,0.007,1.257c0.203,0.986,0.387,1.961,0.55,2.924 c0.165,0.975,0.312,1.949,0.44,2.919c0.229,1.74,0.401,3.501,0.516,5.281c0.116,1.789,0.174,3.578,0.174,5.363 c0,1.786-0.058,3.576-0.174,5.366c-0.115,1.779-0.288,3.539-0.517,5.278c-0.128,0.972-0.275,1.946-0.44,2.922 c-0.163,0.963-0.347,1.936-0.551,2.92c-0.089,0.436-0.089,0.859-0.006,1.257c0.084,0.398,0.254,0.776,0.505,1.118 c0.364,0.496,0.601,1.037,0.706,1.605c0.105,0.566,0.077,1.155-0.086,1.749c-0.642,2.343-1.41,4.616-2.181,6.901l-0.198,0.587 l0.808,1.264l-0.141,0.357c-2.14,5.413-4.825,10.586-8.011,15.439c-3.18,4.845-6.854,9.367-10.975,13.488 c-4.121,4.121-8.644,7.795-13.489,10.975c-4.853,3.186-10.026,5.871-15.439,8.011l-0.357,0.141L689.686,383.382L689.686,383.382z M631.298,382.752c2.234,0.755,4.457,1.503,6.732,2.126c0.462,0.127,0.917,0.149,1.352,0.069c0.432-0.08,0.848-0.264,1.235-0.548 c0.444-0.326,0.939-0.547,1.464-0.658c0.521-0.11,1.069-0.11,1.623,0.005c0.949,0.198,1.912,0.379,2.886,0.544 c0.961,0.163,1.925,0.308,2.892,0.435c1.726,0.228,3.468,0.398,5.219,0.512c1.739,0.113,3.509,0.169,5.307,0.169 c1.796,0,3.565-0.057,5.303-0.169c1.752-0.113,3.494-0.284,5.221-0.512c0.966-0.127,1.93-0.272,2.89-0.435 c0.976-0.165,1.94-0.346,2.889-0.543c0.555-0.116,1.103-0.116,1.624-0.006c0.526,0.111,1.02,0.333,1.464,0.659 c0.387,0.285,0.804,0.469,1.236,0.548c0.435,0.081,0.89,0.059,1.353-0.068c2.185-0.6,4.349-1.322,6.519-2.047l0.211-0.07 l-6.072-3.879c-7.37,2.247-15.009,3.371-22.647,3.371c-7.639,0-15.277-1.125-22.647-3.371L631.298,382.752L631.298,382.752z M582.064,276.113c-0.752,2.227-1.498,4.445-2.12,6.713c-0.127,0.462-0.149,0.918-0.069,1.352 c0.08,0.432,0.263,0.848,0.548,1.236c0.326,0.444,0.547,0.939,0.658,1.464c0.11,0.521,0.111,1.069-0.005,1.623 c-0.198,0.949-0.379,1.911-0.544,2.886c-0.163,0.961-0.308,1.925-0.435,2.892c-0.228,1.727-0.398,3.468-0.512,5.219 c-0.112,1.739-0.169,3.509-0.169,5.307c0,1.796,0.057,3.565,0.169,5.303c0.114,1.752,0.284,3.494,0.512,5.221 c0.127,0.966,0.272,1.931,0.435,2.89c0.165,0.975,0.346,1.939,0.543,2.889c0.117,0.555,0.116,1.103,0.006,1.624 c-0.111,0.525-0.333,1.02-0.659,1.464c-0.285,0.388-0.469,0.804-0.549,1.236c-0.08,0.435-0.058,0.89,0.069,1.353 c0.599,2.185,1.323,4.35,2.047,6.52l0.076,0.23l3.873-6.062c-2.246-7.37-3.371-15.008-3.371-22.647 c0-7.639,1.125-15.277,3.372-22.647L582.064,276.113L582.064,276.113z M733.471,280.332l4.237-6.632 c-2.077-5.187-4.668-10.149-7.729-14.812c-3.118-4.749-6.729-9.193-10.79-13.254c-4.061-4.061-8.505-7.673-13.254-10.79 c-4.663-3.061-9.625-5.651-14.812-7.729l-6.632,4.237c8.482,2.82,16.573,7.148,23.854,12.982l0.229,0.184l0.03,0.025 c0.154,0.124,0.307,0.249,0.46,0.374l0.368,0.305c0.121,0.1,0.241,0.201,0.362,0.303c0.146,0.123,0.292,0.246,0.437,0.37 l0.28,0.24c0.184,0.159,0.368,0.318,0.551,0.479l0.133,0.117c0.201,0.178,0.402,0.357,0.602,0.537l0.119,0.108 c0.214,0.194,0.428,0.389,0.641,0.586l0.068,0.063c0.227,0.211,0.453,0.423,0.678,0.637l0.032,0.031 c0.234,0.223,0.467,0.447,0.699,0.673l0.006,0.005c0.237,0.232,0.474,0.465,0.71,0.701c0.236,0.236,0.469,0.472,0.701,0.71 l0.005,0.006c0.226,0.232,0.45,0.465,0.673,0.699l0.031,0.033c0.214,0.225,0.426,0.451,0.637,0.678l0.063,0.068 c0.197,0.213,0.392,0.427,0.586,0.641l0.108,0.119c0.18,0.2,0.359,0.401,0.537,0.602l0.117,0.133 c0.161,0.183,0.321,0.367,0.479,0.551l0.24,0.279c0.124,0.145,0.247,0.291,0.37,0.437c0.101,0.12,0.202,0.241,0.303,0.362 c0.102,0.123,0.203,0.245,0.304,0.369c0.126,0.153,0.25,0.306,0.375,0.46l0.024,0.03l0.184,0.229 C726.323,263.759,730.651,271.85,733.471,280.332L733.471,280.332z M737.957,276.075l-3.898,6.102 c2.247,7.37,3.371,15.008,3.371,22.647c0,7.639-1.124,15.277-3.371,22.647l3.886,6.083c0.758-2.243,1.51-4.477,2.136-6.761 c0.127-0.462,0.149-0.917,0.069-1.352c-0.08-0.432-0.264-0.848-0.548-1.236c-0.326-0.444-0.547-0.938-0.658-1.464 c-0.11-0.521-0.11-1.068,0.005-1.623c0.198-0.949,0.379-1.911,0.544-2.886c0.162-0.96,0.307-1.925,0.435-2.892 c0.227-1.727,0.399-3.468,0.512-5.219c0.113-1.739,0.169-3.509,0.169-5.307c0-1.796-0.056-3.565-0.169-5.303 c-0.113-1.752-0.284-3.494-0.512-5.221c-0.127-0.966-0.272-1.93-0.435-2.89c-0.165-0.976-0.346-1.939-0.543-2.889 c-0.116-0.554-0.116-1.102-0.006-1.624c0.111-0.525,0.333-1.02,0.659-1.464c0.285-0.387,0.469-0.804,0.548-1.236 c0.081-0.434,0.058-0.89-0.068-1.353c-0.6-2.185-1.322-4.349-2.047-6.52L737.957,276.075L737.957,276.075z M631.259,226.872 l6.092,3.892c7.37-2.247,15.008-3.371,22.647-3.371c7.638,0,15.277,1.124,22.647,3.371l6.094-3.893 c-2.237-0.756-4.464-1.506-6.742-2.13c-0.462-0.127-0.918-0.149-1.352-0.069c-0.432,0.08-0.848,0.263-1.236,0.548 c-0.444,0.326-0.939,0.547-1.464,0.658c-0.521,0.11-1.069,0.11-1.623-0.005c-0.949-0.198-1.912-0.379-2.886-0.544 c-0.961-0.163-1.925-0.308-2.893-0.435c-1.726-0.227-3.467-0.398-5.219-0.512c-1.739-0.113-3.509-0.169-5.306-0.169 c-1.796,0-3.565,0.056-5.303,0.169c-1.752,0.113-3.494,0.284-5.222,0.512c-0.966,0.127-1.93,0.273-2.89,0.435 c-0.976,0.165-1.939,0.347-2.889,0.543c-0.555,0.116-1.102,0.116-1.624,0.006c-0.526-0.111-1.02-0.333-1.464-0.66 c-0.388-0.285-0.804-0.469-1.236-0.548c-0.435-0.081-0.89-0.059-1.353,0.069c-2.185,0.599-4.349,1.322-6.519,2.047 L631.259,226.872L631.259,226.872z M635.506,378.297c-8.482-2.82-16.572-7.148-23.854-12.982l-0.229-0.184l-0.03-0.025 c-0.154-0.124-0.307-0.249-0.46-0.375l-0.369-0.304c-0.121-0.1-0.241-0.201-0.362-0.303c-0.146-0.123-0.292-0.246-0.437-0.37 l-0.279-0.24c-0.184-0.159-0.368-0.319-0.551-0.48l-0.133-0.117c-0.201-0.178-0.402-0.357-0.602-0.537l-0.119-0.108 c-0.214-0.194-0.428-0.389-0.641-0.586l-0.068-0.063c-0.227-0.211-0.453-0.423-0.679-0.637l-0.033-0.031 c-0.234-0.222-0.467-0.447-0.698-0.673l-0.006-0.005c-0.237-0.232-0.474-0.466-0.71-0.701c-0.235-0.235-0.469-0.472-0.701-0.71 l-0.006-0.006c-0.226-0.232-0.45-0.465-0.672-0.698l-0.031-0.033c-0.214-0.225-0.426-0.451-0.637-0.678l-0.063-0.068 c-0.197-0.213-0.392-0.427-0.586-0.641l-0.108-0.119c-0.18-0.2-0.359-0.401-0.537-0.602l-0.117-0.133 c-0.161-0.183-0.321-0.367-0.48-0.551l-0.24-0.279c-0.124-0.145-0.248-0.291-0.371-0.437c-0.101-0.12-0.202-0.241-0.302-0.362 c-0.102-0.122-0.204-0.245-0.305-0.368c-0.125-0.153-0.25-0.306-0.374-0.46l-0.025-0.031l-0.184-0.229 c-5.834-7.282-10.162-15.372-12.982-23.854l-4.237,6.632c2.078,5.187,4.668,10.149,7.729,14.812 c3.118,4.749,6.729,9.193,10.79,13.254c4.061,4.061,8.505,7.672,13.254,10.79c4.663,3.061,9.625,5.651,14.812,7.729 L635.506,378.297L635.506,378.297z M733.471,329.316c-2.82,8.482-7.148,16.573-12.982,23.855l-0.184,0.229l-0.022,0.027 c-0.126,0.156-0.253,0.311-0.38,0.467c-0.101,0.123-0.203,0.246-0.305,0.369c-0.098,0.119-0.197,0.237-0.297,0.356 c-0.123,0.146-0.246,0.292-0.37,0.437l-0.241,0.281c-0.159,0.184-0.318,0.368-0.479,0.55l-0.118,0.134 c-0.179,0.202-0.358,0.403-0.539,0.603l-0.106,0.118c-0.194,0.215-0.39,0.429-0.587,0.642l-0.063,0.068 c-0.211,0.227-0.423,0.453-0.637,0.678l-0.031,0.033c-0.222,0.233-0.447,0.467-0.673,0.698l-0.005,0.006 c-0.232,0.237-0.465,0.474-0.701,0.71c-0.235,0.235-0.472,0.469-0.71,0.701l-0.006,0.005c-0.232,0.226-0.465,0.45-0.699,0.673 l-0.032,0.031c-0.225,0.214-0.451,0.426-0.678,0.637l-0.068,0.063c-0.213,0.197-0.427,0.392-0.641,0.586l-0.119,0.108 c-0.2,0.18-0.401,0.359-0.602,0.537l-0.134,0.118c-0.183,0.161-0.367,0.32-0.55,0.478l-0.281,0.241 c-0.144,0.123-0.289,0.246-0.434,0.368c-0.12,0.102-0.242,0.203-0.363,0.304c-0.121,0.1-0.241,0.2-0.362,0.3 c-0.156,0.128-0.313,0.255-0.47,0.382l-0.026,0.021l-0.229,0.184c-7.281,5.834-15.372,10.162-23.854,12.982l6.632,4.237 c5.187-2.078,10.149-4.668,14.812-7.729c4.749-3.118,9.193-6.729,13.254-10.79c4.061-4.061,7.673-8.505,10.79-13.254 c3.061-4.663,5.651-9.625,7.729-14.812L733.471,329.316L733.471,329.316z M659.999,228.882c-19.435,0-38.871,7.414-53.7,22.243 c-14.829,14.829-22.243,34.264-22.243,53.699c0,19.435,7.414,38.871,22.243,53.699c14.829,14.829,34.264,22.243,53.7,22.243 s38.87-7.415,53.699-22.243c14.829-14.829,22.243-34.264,22.243-53.699c0-19.435-7.415-38.87-22.243-53.699 C698.869,236.296,679.434,228.882,659.999,228.882L659.999,228.882z"/></g></svg>